<?xml version="1.0" encoding="UTF-8"?>
<svg width="100px" height="100px" viewBox="0 0 100 100" version="1.1" xmlns="http://www.w3.org/2000/svg" xmlns:xlink="http://www.w3.org/1999/xlink">
    <title>React Boilerplate</title>
    <desc>React Boilerplate</desc>
    <defs></defs>
    <g id="Page-1" stroke="none" stroke-width="1" fill="none" fill-rule="evenodd">
        <g id="Artboard">
            <rect id="Rectangle" fill="#F96B7A" x="0" y="0" width="100" height="100" rx="20"></rect>
            <path d="M30.816,54.416 L26.784,54.416 L26.784,69.704 L19,69.704 L19,30 L34.512,30 C36.453343,30 38.1986589,30.3173302 39.748,30.952 C41.2973411,31.5866698 42.6226612,32.4453279 43.724,33.528 C44.8253388,34.6106721 45.6746637,35.8986592 46.272,37.392 C46.8693363,38.8853408 47.168,40.4906581 47.168,42.208 C47.168,45.008014 46.4120076,47.3973234 44.9,49.376 C43.3879924,51.3546766 41.3253464,52.7173296 38.712,53.464 L47.224,69.704 L38.6,69.704 L30.816,54.416 Z M33.056,47.752 C35.0346766,47.752 36.5653279,47.248005 37.648,46.24 C38.7306721,45.231995 39.272,43.9066749 39.272,42.264 C39.272,40.5839916 38.7306721,39.240005 37.648,38.232 C36.5653279,37.223995 35.0346766,36.72 33.056,36.72 L26.784,36.72 L26.784,47.752 L33.056,47.752 Z M68.28,30 C70.221343,30 71.9386592,30.270664 73.432,30.812 C74.9253408,31.353336 76.1853282,32.0999952 77.212,33.052 C78.2386718,34.0040048 79.022664,35.1333268 79.564,36.44 C80.105336,37.7466732 80.376,39.1653257 80.376,40.696 C80.376,42.7493436 79.8346721,44.5413257 78.752,46.072 C77.6693279,47.6026743 76.2880084,48.6479972 74.608,49.208 C75.5786715,49.4320011 76.4839958,49.8239972 77.324,50.384 C78.1640042,50.9440028 78.9013302,51.6253293 79.536,52.428 C80.1706698,53.2306707 80.6746648,54.1546614 81.048,55.2 C81.4213352,56.2453386 81.608,57.3839938 81.608,58.616 C81.608,60.2213414 81.3186696,61.7053265 80.74,63.068 C80.1613304,64.4306735 79.3400053,65.5973285 78.276,66.568 C77.2119947,67.5386715 75.9240076,68.3039972 74.412,68.864 C72.8999924,69.4240028 71.210676,69.704 69.344,69.704 L54,69.704 L54,30 L68.28,30 Z M67.104,46.408 C68.896009,46.408 70.2866617,45.9600045 71.276,45.064 C72.2653383,44.1679955 72.76,42.9546743 72.76,41.424 C72.76,39.8933257 72.2840048,38.6893377 71.332,37.812 C70.3799952,36.9346623 68.9520095,36.496 67.048,36.496 L61.616,36.496 L61.616,46.408 L67.104,46.408 Z M67.888,63.264 C69.7920095,63.264 71.2666614,62.8066712 72.312,61.892 C73.3573386,60.9773288 73.88,59.7173414 73.88,58.112 C73.88,56.5439922 73.3853383,55.2653383 72.396,54.276 C71.4066617,53.2866617 69.941343,52.792 68,52.792 L61.616,52.792 L61.616,63.264 L67.888,63.264 Z" id="RB" fill="#FFFFFF"></path>
        </g>
    </g>
</svg>
